<?xml version="1.0" encoding="utf-8"?>
<!-- Generator: Adobe Illustrator 19.0.0, SVG Export Plug-In . SVG Version: 6.00 Build 0)  -->
<svg version="1.1" id="Warstwa_1" xmlns="http://www.w3.org/2000/svg" xmlns:xlink="http://www.w3.org/1999/xlink" x="0px" y="0px"
	 viewBox="0 0 283.9 122.2" style="enable-background:new 0 0 283.9 122.2;" xml:space="preserve">
<style type="text/css">
	.st0{fill:#111111;}
	.st1{fill:#C7A488;}
	.st2{fill:#E98547;}
	.st3{fill:#7AC1A3;}
</style>
<g id="XMLID_5_">
	<path id="XMLID_6_" class="st0" d="M122.8,16.4h15.6c4.1,0,7.2,1.1,9.4,3.3c1.1,1.1,1.9,2.3,2.5,3.7c0.6,1.4,0.9,3,0.9,4.7
		c0,1.7-0.3,3.2-0.8,4.6c-0.6,1.4-1.3,2.6-2.4,3.6c-1,1-2.3,1.8-3.7,2.3c-1.4,0.6-3.1,0.8-4.9,0.8h-8.4v12.2h-8.2V16.4z M130.9,33
		h6.9c1.7,0,3-0.4,3.9-1.3c0.9-0.9,1.3-2.1,1.3-3.6c0-1.5-0.4-2.7-1.3-3.6c-0.9-0.8-2.2-1.3-3.9-1.3h-6.9V33z"/>
	<path id="XMLID_46_" class="st0" d="M154.8,16.4h7.5v35.2h-7.5V16.4z"/>
	<path id="XMLID_48_" class="st0" d="M183.3,51.6c-0.2-0.3-0.4-0.7-0.5-1.2c-0.2-0.5-0.3-1.1-0.3-1.9h-0.1c-0.8,1.2-1.8,2.1-3,2.7
		s-2.7,1-4.7,1c-1.2,0-2.4-0.2-3.4-0.5c-1.1-0.3-2-0.8-2.7-1.4c-0.8-0.6-1.4-1.4-1.8-2.4c-0.4-1-0.6-2.1-0.6-3.3
		c0-1.4,0.3-2.5,0.8-3.5c0.5-0.9,1.2-1.7,2.1-2.2s1.9-1,3.1-1.3c1.2-0.3,2.5-0.5,3.9-0.7c2.2-0.3,3.9-0.7,4.8-1.1
		c1-0.4,1.5-1.1,1.5-2.1c0-0.9-0.3-1.6-0.9-2.2c-0.6-0.6-1.5-0.8-2.8-0.8c-1.4,0-2.5,0.3-3.2,0.9c-0.7,0.6-1.1,1.4-1.2,2.4h-6.9
		c0-1.1,0.3-2.1,0.8-3.1c0.5-1,1.2-1.9,2.1-2.7c0.9-0.8,2.1-1.4,3.5-1.8c1.4-0.5,3-0.7,4.9-0.7c1.6,0,3,0.1,4.2,0.4
		c1.2,0.2,2.2,0.6,3.1,1.2c1.3,0.8,2.3,1.8,2.9,3c0.6,1.3,0.9,2.8,0.9,4.5v12.9c0,1.9,0.3,3.1,0.9,3.5v0.4H183.3z M177.1,47.4
		c1.7,0,3-0.5,4-1.4c1-0.9,1.5-2.1,1.5-3.5v-3.3c-0.5,0.3-1.2,0.6-2,0.8s-1.6,0.4-2.4,0.6c-1.6,0.3-2.9,0.8-3.6,1.3
		c-0.8,0.5-1.2,1.3-1.2,2.4c0,1.1,0.4,1.9,1.1,2.3C175.2,47.1,176.1,47.4,177.1,47.4z"/>
	<path id="XMLID_51_" class="st0" d="M201.8,30.2h0.1c0.8-1.5,1.8-2.6,3.1-3.4c1.3-0.8,2.8-1.1,4.6-1.1c2.8,0,4.9,0.8,6.5,2.5
		c1.5,1.7,2.3,3.9,2.3,6.8v16.5h-7.4V36.4c0-1.4-0.4-2.5-1.1-3.3s-1.8-1.3-3.1-1.3c-1.5,0-2.6,0.5-3.5,1.6c-0.9,1-1.3,2.4-1.3,4
		v14.2h-7.4V26.4h7.2V30.2z"/>
	<path id="XMLID_53_" class="st0" d="M221.2,26.4h3.8v-8h7.3v8h4.9v4.7h-4.9v12.5c0,0.9,0.2,1.6,0.7,1.9c0.5,0.3,1.2,0.5,2.1,0.5
		c0.3,0,0.5,0,0.9,0c0.3,0,0.6,0,0.9-0.1h0.4v5.5c-0.4,0.1-1,0.1-1.7,0.2c-0.7,0.1-1.6,0.1-2.6,0.1c-1.2,0-2.2-0.1-3.2-0.3
		c-1-0.2-1.8-0.6-2.5-1.1c-0.7-0.5-1.2-1.2-1.6-2c-0.4-0.8-0.6-1.9-0.6-3.2V31.1h-3.8V26.4z"/>
	<path id="XMLID_55_" class="st0" d="M252,52.4c-1.8,0-3.5-0.2-4.9-0.6c-1.5-0.4-2.7-1-3.7-1.8c-1-0.8-1.8-1.7-2.4-2.7
		c-0.6-1.1-0.9-2.2-1-3.5h7c0.2,1.2,0.8,2.1,1.6,2.7c0.9,0.6,2,0.9,3.5,0.9c1.3,0,2.3-0.3,3.1-0.8c0.7-0.5,1.1-1.2,1.1-2.1
		c0-0.6-0.2-1-0.5-1.4c-0.3-0.3-0.8-0.6-1.4-0.9c-0.6-0.2-1.3-0.4-2.1-0.5c-0.8-0.1-1.6-0.3-2.5-0.4c-1.1-0.2-2.2-0.5-3.3-0.8
		c-1.1-0.3-2-0.7-2.9-1.3s-1.5-1.3-2.1-2.2c-0.5-0.9-0.8-2.1-0.8-3.6c0-1.3,0.3-2.4,0.8-3.4c0.6-1,1.3-1.8,2.2-2.5s2.1-1.2,3.4-1.5
		c1.3-0.3,2.7-0.5,4.2-0.5c3.5,0,6.1,0.7,7.9,2.1s2.9,3.2,3.2,5.4h-6.9c-0.5-1.8-1.9-2.7-4.3-2.7c-1.1,0-2,0.2-2.7,0.7
		c-0.7,0.4-1,1.1-1,1.9c0,0.5,0.2,0.9,0.5,1.2c0.3,0.3,0.8,0.5,1.3,0.7s1.2,0.3,2,0.5c0.8,0.1,1.6,0.3,2.4,0.4
		c1.1,0.2,2.3,0.4,3.4,0.7c1.1,0.3,2.2,0.7,3.1,1.3c0.9,0.6,1.7,1.4,2.2,2.4s0.9,2.3,0.9,3.9c0,1.4-0.3,2.6-0.9,3.6
		s-1.4,1.9-2.4,2.6s-2.2,1.2-3.6,1.6C255.2,52.2,253.7,52.4,252,52.4z"/>
	<path id="XMLID_57_" class="st0" d="M123.4,73.1h24.1v4.3h-19.2v10.5h16V92h-16v16.3h-4.8V73.1z"/>
	<path id="XMLID_59_" class="st0" d="M161.2,109c-1.9,0-3.6-0.3-5.2-1c-1.5-0.7-2.8-1.6-3.9-2.9c-1.1-1.2-1.9-2.6-2.5-4.3
		c-0.6-1.6-0.9-3.4-0.9-5.2c0-1.8,0.3-3.6,0.9-5.2c0.6-1.6,1.4-3,2.5-4.3c1.1-1.2,2.4-2.2,3.9-2.9c1.5-0.7,3.3-1,5.2-1
		c1.9,0,3.6,0.3,5.2,1s2.8,1.6,3.9,2.9c1.1,1.2,1.9,2.6,2.5,4.3c0.6,1.6,0.9,3.3,0.9,5.2c0,1.9-0.3,3.6-0.9,5.2
		c-0.6,1.6-1.4,3-2.5,4.3c-1.1,1.2-2.4,2.2-3.9,2.9C164.8,108.7,163.1,109,161.2,109z M161.1,105.4c1.3,0,2.4-0.3,3.4-0.8
		c1-0.5,1.8-1.2,2.5-2.1c0.7-0.9,1.2-1.9,1.5-3.1s0.5-2.5,0.5-3.9c0-1.4-0.2-2.6-0.5-3.8s-0.8-2.2-1.5-3.1s-1.5-1.6-2.5-2.1
		c-1-0.5-2.1-0.8-3.4-0.8c-1.3,0-2.4,0.3-3.4,0.8c-1,0.5-1.8,1.2-2.5,2.1s-1.2,1.9-1.5,3.1s-0.5,2.5-0.5,3.8c0,1.4,0.2,2.7,0.5,3.9
		s0.8,2.2,1.5,3.1c0.7,0.9,1.5,1.6,2.5,2.1C158.7,105.2,159.8,105.4,161.1,105.4z"/>
	<path id="XMLID_62_" class="st0" d="M182.5,87.5h0.1c0.8-1.5,1.8-2.7,3.1-3.6c1.3-0.9,2.7-1.3,4.4-1.3c0.3,0,0.6,0,0.9,0.1
		c0.2,0,0.5,0.1,0.7,0.2V87h-0.1c-0.3-0.1-0.6-0.2-0.9-0.2c-0.3,0-0.6,0-0.9,0c-1,0-1.9,0.2-2.8,0.5s-1.7,0.9-2.3,1.5
		s-1.2,1.5-1.6,2.4s-0.6,2-0.6,3.2v13.8h-4.4V82.9h4.3V87.5z"/>
	<path id="XMLID_64_" class="st0" d="M219.2,93.5l-12.7-20.4h5.4l6.3,10.6c0.3,0.6,0.7,1.3,1.1,2.1c0.4,0.8,0.8,1.5,1.1,2.1l1.2,2.4
		h0.1c0.4-0.8,0.8-1.6,1.2-2.4c0.3-0.7,0.7-1.4,1.1-2.1c0.4-0.8,0.8-1.4,1.2-2.1l6.4-10.6h5.2L224,93.8v14.5h-4.8V93.5z"/>
	<path id="XMLID_66_" class="st0" d="M246.4,109c-1.9,0-3.6-0.3-5.2-1c-1.5-0.7-2.8-1.6-3.9-2.9c-1.1-1.2-1.9-2.6-2.5-4.3
		c-0.6-1.6-0.9-3.4-0.9-5.2c0-1.8,0.3-3.6,0.9-5.2c0.6-1.6,1.4-3,2.5-4.3c1.1-1.2,2.4-2.2,3.9-2.9c1.5-0.7,3.3-1,5.2-1
		s3.6,0.3,5.2,1c1.5,0.7,2.8,1.6,3.9,2.9c1.1,1.2,1.9,2.6,2.5,4.3c0.6,1.6,0.9,3.3,0.9,5.2c0,1.9-0.3,3.6-0.9,5.2
		c-0.6,1.6-1.4,3-2.5,4.3c-1.1,1.2-2.4,2.2-3.9,2.9C250,108.7,248.3,109,246.4,109z M246.3,105.4c1.3,0,2.4-0.3,3.4-0.8
		c1-0.5,1.8-1.2,2.5-2.1c0.7-0.9,1.2-1.9,1.5-3.1c0.3-1.2,0.5-2.5,0.5-3.9c0-1.4-0.2-2.6-0.5-3.8c-0.3-1.2-0.8-2.2-1.5-3.1
		c-0.7-0.9-1.5-1.6-2.5-2.1c-1-0.5-2.1-0.8-3.4-0.8c-1.3,0-2.4,0.3-3.4,0.8s-1.8,1.2-2.5,2.1c-0.7,0.9-1.2,1.9-1.5,3.1
		s-0.5,2.5-0.5,3.8c0,1.4,0.2,2.7,0.5,3.9s0.8,2.2,1.5,3.1c0.7,0.9,1.5,1.6,2.5,2.1C243.9,105.2,245,105.4,246.3,105.4z"/>
	<path id="XMLID_69_" class="st0" d="M279.6,108.3v-3.5h-0.1c-0.9,1.3-2,2.3-3.1,3s-2.7,1.1-4.5,1.1c-2.6,0-4.7-0.7-6.3-2.2
		s-2.3-3.6-2.3-6.2V82.9h4.4v17.3c0,1.6,0.5,2.9,1.4,3.8c1,0.9,2.3,1.3,4.1,1.3c1,0,1.9-0.2,2.6-0.5c0.8-0.3,1.5-0.8,2-1.4
		c0.6-0.6,1-1.3,1.3-2.2c0.3-0.9,0.4-1.8,0.4-2.7V82.9h4.4v25.4H279.6z"/>
</g>
<g id="XMLID_70_">
	<g id="XMLID_71_">
		<polygon id="XMLID_81_" class="st1" points="66.6,78.6 62.3,114.5 17.6,114.5 13.4,78.6 		"/>
		<rect id="XMLID_80_" x="7.8" y="56.6" class="st2" width="64.5" height="14.3"/>
		<path id="XMLID_79_" class="st3" d="M36.1,26.4c-0.5,0-1,0-1.5,0c-6.9,0-10.6-1-11.7-2c-1.9-1.6-4.8-8.7-7.2-16
			c7.5,1.1,15,2.8,16.9,4.5C34.3,14.4,35.6,20.5,36.1,26.4z"/>
		<path id="XMLID_78_" class="st3" d="M60.4,24.4c-3.7,2.6-7.1,4.6-8.3,4.7c-1.1,0-3.8-1.6-6.5-3.8c2.4-2.3,4.8-4.1,5.8-4.2
			C52.9,21.1,56.6,22.6,60.4,24.4z"/>
		<path id="XMLID_72_" d="M80,52.7v22c0,2.1-1.7,3.9-3.9,3.9h-1.7l-4.8,40.2c-0.2,2-1.9,3.4-3.8,3.4H14.2c-2,0-3.6-1.5-3.8-3.4
			L5.6,78.6H3.9c-2.1,0-3.9-1.7-3.9-3.9v-22c0-2.1,1.7-3.9,3.9-3.9h32.4V34.2c-0.5,0-1.1,0-1.7,0c-8.2,0-13.7-1.3-16.7-3.9
			C12.4,25.7,7.5,8.3,6.6,4.9c-0.3-1.2,0-2.5,0.8-3.5S9.4-0.1,10.7,0c3.5,0.4,21.5,2.4,27,7c2.3,1.9,3.9,5.4,5,10.5
			c2.5-2.1,5.4-3.9,8.2-4.2c0.2,0,0.4,0,0.7,0c5.2,0,15.1,5.5,18,7.1c1.1,0.6,1.8,1.8,1.9,3c0.1,1.3-0.4,2.5-1.4,3.3
			c-3.5,2.9-12.2,9.6-17.3,10c-0.2,0-0.4,0-0.6,0c-2.6,0-5.5-1.4-8.1-3.2v15.1h32.1C78.2,48.8,80,50.6,80,52.7z M72.2,70.9V56.6H7.8
			v14.3H72.2z M62.3,114.5l4.2-35.9H13.4l4.2,35.9H62.3z M52.1,29.2c1.2-0.1,4.6-2.1,8.3-4.7c-3.8-1.9-7.5-3.3-8.9-3.3
			c-1,0.1-3.5,1.9-5.8,4.2C48.4,27.5,51,29.2,52.1,29.2z M34.6,26.5c0.5,0,1,0,1.5,0c-0.5-6-1.8-12.1-3.5-13.5
			c-1.9-1.6-9.4-3.4-16.9-4.5c2.3,7.3,5.2,14.4,7.2,16C24,25.4,27.7,26.5,34.6,26.5z"/>
	</g>
</g>
</svg>
